<?xml version="1.0" encoding="utf-8"?>
<!-- Generator: Adobe Illustrator 16.0.0, SVG Export Plug-In . SVG Version: 6.00 Build 0)  -->
<!DOCTYPE svg PUBLIC "-//W3C//DTD SVG 1.1//EN" "http://www.w3.org/Graphics/SVG/1.1/DTD/svg11.dtd">
<svg version="1.1" id="Layer_1" xmlns="http://www.w3.org/2000/svg" xmlns:xlink="http://www.w3.org/1999/xlink" x="0px" y="0px"
	 width="517.949px" height="100px" viewBox="0 0 517.949 100" enable-background="new 0 0 517.949 100" xml:space="preserve">
<g>
	<polygon fill="none" points="344.241,59.096 368.074,59.096 356.437,32.417 	"/>
	<path fill="none" d="M292.106,21.747h-3.912v24.695h4.421c10.874,0,16.312-4.184,16.312-12.55
		C308.926,25.795,303.319,21.747,292.106,21.747z"/>
	<path stroke="#FFFFFF" stroke-width="2" stroke-linecap="round" stroke-linejoin="round" stroke-miterlimit="10" d="M16.894,23.677
		c-6.605,7.826-9.909,16.736-9.909,26.729c0,11.145,3.947,20.665,11.839,28.559c7.928,7.824,17.498,11.736,28.711,11.736
		c7.454,0,14.566-1.924,21.342-5.77V70.629c-1.931,1.627-3.769,3.018-5.514,4.168c-1.744,1.152-3.43,2.066-5.055,2.744
		c-2.913,1.355-6.454,2.033-10.621,2.033c-8.062,0-14.871-2.828-20.427-8.486s-8.335-12.602-8.335-20.835
		c0-8.334,2.779-15.378,8.335-21.137c5.522-5.794,12.313-8.69,20.377-8.69c7.316,0,14.396,2.861,21.239,8.588V15.012
		c-6.572-3.811-13.38-5.714-20.427-5.714C35.543,9.298,25.024,14.091,16.894,23.677z"/>
	<polygon stroke="#FFFFFF" stroke-width="2" stroke-linecap="round" stroke-linejoin="round" stroke-miterlimit="10" points="
		240.596,14.332 217.001,65.905 194.223,14.332 188.228,14.332 173.555,89.28 185.801,89.28 194.236,41.87 214.378,87.417 
		219.29,87.417 240.02,41.919 247.591,89.28 259.736,89.28 246.552,14.332 	"/>
	
		<line stroke="#FFFFFF" stroke-width="2" stroke-linecap="round" stroke-linejoin="round" stroke-miterlimit="10" x1="194.222" y1="14.331" x2="194.223" y2="14.332"/>
	<path stroke="#FFFFFF" stroke-width="2" stroke-linecap="round" stroke-linejoin="round" stroke-miterlimit="10" d="
		M313.601,17.376c-2.575-2.54-5.557-4.268-8.944-5.182c-3.354-0.915-8.316-1.372-14.889-1.372h-13.415V89.28h11.841V57.42h5.487
		c8.164,0,14.652-2.102,19.463-6.303c4.809-4.2,7.214-9.892,7.214-17.072C320.358,27.337,318.105,21.78,313.601,17.376z
		 M292.615,46.442h-4.421V21.747h3.912c11.213,0,16.82,4.048,16.82,12.146C308.926,42.259,303.489,46.442,292.615,46.442z"/>
	<path stroke="#FFFFFF" stroke-width="2" stroke-linecap="round" stroke-linejoin="round" stroke-miterlimit="10" d="
		M352.712,14.331h7.718H352.712L317.818,89.28h12.754l8.741-19.057H372.9l8.233,19.057h12.956L360.43,14.331H352.712z
		 M344.241,59.096l12.196-26.679l11.637,26.679H344.241z"/>
	<path stroke="#FFFFFF" stroke-width="2" stroke-linecap="round" stroke-linejoin="round" stroke-miterlimit="10" d="
		M431.897,42.597l-7.826-3.204c-5.691-2.339-8.537-5.424-8.537-9.254c0-2.781,1.084-5.086,3.253-6.916
		c2.168-1.865,4.896-2.797,8.181-2.797c2.676,0,4.861,0.542,6.556,1.626c1.625,0.948,3.336,2.981,5.132,6.098l9.604-5.691
		c-5.083-8.773-12.146-13.16-21.19-13.16c-6.707,0-12.314,1.996-16.819,5.991c-4.505,3.962-6.759,8.886-6.759,14.774
		c0,8.735,5.371,15.369,16.108,19.905l7.572,3.147c1.966,0.848,3.658,1.738,5.08,2.668c1.424,0.932,2.582,1.93,3.479,2.996
		c0.898,1.066,1.558,2.232,1.981,3.504c0.423,1.27,0.638,2.666,0.638,4.188c0,3.793-1.221,6.924-3.659,9.396
		c-2.439,2.469-5.505,3.707-9.196,3.707c-4.676,0-8.232-1.693-10.672-5.082c-1.355-1.762-2.304-4.947-2.846-9.555l-11.992,2.645
		c1.084,7.316,3.811,12.998,8.183,17.045c4.437,4.049,10.06,6.074,16.868,6.074c7.184,0,13.195-2.373,18.04-7.121
		c4.811-4.711,7.216-10.676,7.216-17.9c0-5.387-1.474-9.938-4.422-13.65C442.923,48.316,438.264,45.172,431.897,42.597z"/>
	<path stroke="#FFFFFF" stroke-width="2" stroke-linecap="round" stroke-linejoin="round" stroke-miterlimit="10" d="M506.542,52.03
		c-2.946-3.713-7.604-6.858-13.974-9.433l-7.825-3.204c-5.691-2.339-8.537-5.424-8.537-9.254c0-2.781,1.084-5.086,3.253-6.916
		c2.167-1.865,4.895-2.797,8.18-2.797c2.677,0,4.862,0.542,6.555,1.626c1.627,0.948,3.338,2.981,5.134,6.098l9.603-5.691
		c-5.08-8.773-12.144-13.16-21.188-13.16c-6.707,0-12.314,1.996-16.819,5.991c-4.506,3.962-6.759,8.886-6.759,14.774
		c0,8.735,5.369,15.369,16.108,19.905l7.571,3.147c1.965,0.848,3.658,1.738,5.082,2.668c1.423,0.932,2.58,1.93,3.479,2.996
		c0.897,1.066,1.559,2.232,1.981,3.504c0.424,1.27,0.637,2.666,0.637,4.188c0,3.793-1.219,6.924-3.658,9.396
		c-2.438,2.469-5.504,3.707-9.197,3.707c-4.675,0-8.232-1.693-10.67-5.082c-1.356-1.762-2.305-4.947-2.848-9.555l-11.992,2.645
		c1.084,7.316,3.812,12.998,8.182,17.045c4.438,4.049,10.062,6.074,16.87,6.074c7.182,0,13.195-2.373,18.039-7.121
		c4.81-4.711,7.216-10.676,7.216-17.9C510.963,60.293,509.491,55.743,506.542,52.03z"/>
	<g>
		<g opacity="0.3">
			<path fill="#27495B" d="M132.106,91.887L96.37,82.309l0,0c24.659,5.242,49.573-2.16,67.235-18.014l0,0l-26.161,26.158
				C137.444,90.454,135.487,92.792,132.106,91.887z"/>
		</g>
		<g opacity="0.3">
			<path fill="#3A97C8" d="M82.796,35.816l26.158-26.158l0,0C92.086,28.391,86.043,53.67,90.94,76.891l0,0l-9.575-35.734
				C81.365,41.157,80.32,38.293,82.796,35.816z"/>
		</g>
		<g>
			<path fill="#3A97C8" d="M163.674,64.235l-26.162,26.158l0,0c16.87-18.732,22.913-44.01,18.017-67.232l0,0l9.575,35.738
				C165.104,58.899,166.15,61.76,163.674,64.235z"/>
		</g>
		<g>
			<path fill="#27495B" d="M114.4,8.113l35.736,9.575l0,0c-24.659-5.241-49.573,2.163-67.236,18.015l0,0l26.16-26.159
				C109.06,9.544,111.017,7.207,114.4,8.113z"/>
		</g>
		<g>
			<path fill="#306581" d="M89.326,58.852c-0.174,6.045,0.36,12.1,1.605,18.02l0.324,1.205c0.905,3.381,3.908,3.908,3.908,3.908
				l35.734,9.576C113.885,86.002,98.972,74.469,89.326,58.852z"/>
		</g>
		<g opacity="0.3">
			<path fill="#306581" d="M155.214,21.913l9.576,35.738l0,0C157,33.672,138.13,15.8,115.57,8.429l0,0l35.736,9.575
				C151.306,18.004,154.308,18.531,155.214,21.913z"/>
		</g>
	</g>
</g>
</svg>
