<?xml version="1.0" encoding="utf-8"?>
<!-- Generator: Adobe Illustrator 19.1.0, SVG Export Plug-In . SVG Version: 6.00 Build 0)  -->
<!DOCTYPE svg PUBLIC "-//W3C//DTD SVG 1.1//EN" "http://www.w3.org/Graphics/SVG/1.1/DTD/svg11.dtd">
<svg version="1.1" xmlns="http://www.w3.org/2000/svg" xmlns:xlink="http://www.w3.org/1999/xlink" x="0px" y="0px"
	 viewBox="0 0 380.077 70.057" enable-background="new 0 0 380.077 70.057" xml:space="preserve">
<g id="guides" display="none">
</g>
<g id="background">
</g>
<g id="Layer_1">
	<g>
		<path fill="#FFFFFF" d="M2.495,33.939c0,8.017,2.879,14.963,8.558,20.644c5.701,5.627,12.686,8.483,20.757,8.483
			c5.23,0,10.301-1.336,15.077-3.97v-8.603c-1.016,0.808-2.001,1.526-2.937,2.144c-1.322,0.874-2.624,1.581-3.87,2.099
			c-2.22,1.034-4.974,1.564-8.158,1.564c-6.154,0-11.426-2.191-15.669-6.512c-4.241-4.319-6.39-9.688-6.39-15.963
			c0-6.345,2.148-11.789,6.385-16.182c4.217-4.423,9.479-6.668,15.637-6.668c5.144,0,10.184,1.871,15.002,5.563V8.135
			c-4.621-2.605-9.463-3.924-14.399-3.924c-9.294,0-16.973,3.497-22.823,10.395C4.907,20.242,2.495,26.747,2.495,33.939z"/>
		<path fill="#FFFFFF" d="M175.384,7.942l-17.29,37.793c-0.122,0.265-0.361,0.449-0.679,0.433c-0.292-0.003-0.556-0.175-0.674-0.442
			L140.053,7.942h-3.35l-10.586,54.069h7.556l6.143-34.529c0.056-0.322,0.317-0.567,0.64-0.606c0.321-0.037,0.635,0.138,0.767,0.436
			l14.735,33.318h2.681l15.168-33.29c0.135-0.297,0.447-0.469,0.774-0.427c0.325,0.044,0.581,0.295,0.633,0.618l5.512,34.48h7.486
			l-9.511-54.069H175.384z"/>
		<path fill="#FFFFFF" d="M233.287,21.812c0-4.742-1.61-8.72-4.786-11.825c-1.81-1.785-3.93-3.014-6.303-3.655
			c-2.413-0.659-6.06-0.992-10.844-0.992h-9.202v56.671h7.294V39.138c0-0.41,0.332-0.741,0.741-0.741h4.067
			c5.839,0,10.528-1.51,13.938-4.488C231.573,30.956,233.287,26.885,233.287,21.812z M213.465,31.742h-3.277
			c-0.41,0-0.741-0.332-0.741-0.741V12.697c0-0.41,0.332-0.741,0.741-0.741h2.9c8.765,0,13.208,3.278,13.208,9.743
			C226.296,28.363,221.98,31.742,213.465,31.742z"/>
		<path fill="#FFFFFF" d="M258.483,7.941l-25.174,54.07h7.815l6.281-13.692c0.121-0.264,0.384-0.432,0.674-0.432h24.895
			c0.295,0,0.563,0.176,0.681,0.447l5.909,13.677h7.971L263.25,7.941H258.483z M270.016,40.786c-0.137,0.209-0.37,0.335-0.62,0.335
			H251.73c-0.252,0-0.486-0.128-0.623-0.341c-0.137-0.212-0.156-0.479-0.051-0.708l9.04-19.775c0.122-0.266,0.418-0.42,0.681-0.433
			c0.292,0.003,0.555,0.177,0.673,0.445l8.625,19.775C270.175,40.313,270.153,40.577,270.016,40.786z"/>
		<path fill="#FFFFFF" d="M326.479,35.603c-2.093-2.637-5.476-4.914-10.055-6.766l-5.803-2.376
			c-4.505-1.851-6.788-4.389-6.788-7.545c0-2.28,0.899-4.195,2.673-5.693c1.732-1.49,3.935-2.248,6.542-2.248
			c2.118,0,3.887,0.445,5.258,1.322c1.186,0.692,2.395,2.049,3.664,4.129l5.841-3.462c-3.618-5.889-8.43-8.754-14.689-8.754
			c-4.762,0-8.791,1.431-11.974,4.254c-3.204,2.817-4.76,6.218-4.76,10.396c0,6.203,3.757,10.806,11.487,14.071l5.608,2.33
			c1.492,0.644,2.797,1.329,3.887,2.042c1.11,0.726,2.031,1.521,2.741,2.364c0.722,0.857,1.262,1.812,1.605,2.839
			c0.339,1.017,0.511,2.14,0.511,3.338c0,2.998-0.985,5.517-2.925,7.486c-1.947,1.969-4.418,2.968-7.345,2.968
			c-3.701,0-6.565-1.371-8.512-4.075c-1-1.298-1.706-3.472-2.14-6.617l-7.414,1.635c0.841,4.904,2.765,8.775,5.727,11.517
			c3.128,2.855,7.167,4.305,11.999,4.305c5.098,0,9.422-1.705,12.852-5.067c3.402-3.331,5.126-7.617,5.126-12.739
			C329.595,41.457,328.546,38.208,326.479,35.603z"/>
		<path fill="#FFFFFF" d="M371.45,35.603c-2.093-2.638-5.476-4.914-10.055-6.766l-5.803-2.376c-4.504-1.851-6.788-4.389-6.788-7.545
			c0-2.28,0.9-4.195,2.674-5.693c1.731-1.49,3.934-2.248,6.541-2.248c2.119,0,3.889,0.445,5.258,1.322
			c1.186,0.691,2.395,2.048,3.665,4.129l5.841-3.462c-3.617-5.889-8.428-8.754-14.688-8.754c-4.763,0-8.791,1.431-11.975,4.254
			c-3.203,2.817-4.76,6.217-4.76,10.396c0,6.203,3.758,10.806,11.486,14.071l5.608,2.33c1.492,0.644,2.796,1.329,3.888,2.042
			c1.107,0.726,2.029,1.52,2.739,2.363c0.724,0.862,1.264,1.818,1.606,2.841c0.339,1.012,0.51,2.136,0.51,3.338
			c0,3-0.984,5.517-2.925,7.486c-1.946,1.969-4.417,2.968-7.345,2.968c-3.702,0-6.565-1.371-8.51-4.075
			c-0.999-1.298-1.706-3.472-2.141-6.617l-7.414,1.635c0.841,4.902,2.764,8.774,5.726,11.517c3.129,2.855,7.168,4.305,12.001,4.305
			c5.098,0,9.422-1.705,12.852-5.067c3.401-3.331,5.126-7.618,5.126-12.739C374.566,41.456,373.518,38.207,371.45,35.603z"/>
		<g>
			<g opacity="0.3">
				<path fill="#FFFFFF" d="M94.494,64.686l-26.488-7.1l0,0c18.277,3.885,36.743-1.601,49.836-13.352l0,0l-19.39,19.389
					C98.451,63.623,97.001,65.356,94.494,64.686z"/>
			</g>
			<g opacity="0.3">
				<path fill="#FFFFFF" d="M57.945,23.125L77.334,3.736l0,0C64.832,17.621,60.353,36.358,63.982,53.57l0,0l-7.098-26.486
					C56.884,27.083,56.109,24.961,57.945,23.125z"/>
			</g>
			<g>
				<path fill="#FFFFFF" d="M117.893,44.189L98.501,63.577l0,0c12.505-13.884,16.984-32.621,13.355-49.833l0,0l7.097,26.49
					C118.952,40.234,119.728,42.355,117.893,44.189z"/>
			</g>
			<g>
				<path fill="#FFFFFF" d="M81.37,2.591l26.489,7.098l0,0c-18.278-3.885-36.745,1.603-49.837,13.352l0,0l19.39-19.39
					C77.412,3.651,78.863,1.919,81.37,2.591z"/>
			</g>
			<g>
				<path fill="#FFFFFF" d="M62.785,40.199c-0.129,4.481,0.267,8.968,1.19,13.356l0.24,0.893c0.671,2.506,2.897,2.897,2.897,2.897
					l26.486,7.098C80.989,60.323,69.936,51.775,62.785,40.199z"/>
			</g>
			<g opacity="0.3">
				<path fill="#FFFFFF" d="M111.622,12.819l7.098,26.49l0,0C112.946,21.536,98.96,8.289,82.238,2.825l0,0l26.488,7.097
					C108.726,9.922,110.95,10.313,111.622,12.819z"/>
			</g>
		</g>
	</g>
</g>
<g id="page_x5F_numbers">
</g>
</svg>
